# xmcd
#
# Track frame offsets: 
#        150
#        18161
#        33827
#        54879
#        70638
#        87333
#        101699
#        118645
#        135276
#        151595
#        171152
#
# Disc length: 2494 seconds
#
# Revision: 0
# Processed by: cddbd v1.5.2PL0 Copyright (c) Steve Scherf et al.
# Submitted via: ExactAudioCopy v0.99pb4
#
DISCID=7509bc0b
DTITLE=BrokeDown Cadillac - Somewhere in America
DYEAR=2009
DGENRE=Country
TTITLE0=BrokeDown Cadillac
TTITLE1=Baby's Gonna Start a Fire
TTITLE2=Girl With A Broken Heart
TTITLE3=Chasing the Moon
TTITLE4=Last Picture Show
TTITLE5=Love on the Run
TTITLE6=Scarlet O'Hara (Ghost of Dixie)
TTITLE7=Off the Rails
TTITLE8=Big City
TTITLE9=The Breakers
TTITLE10=Love Walks In
EXTD=
EXTT0=
EXTT1=
EXTT2=
EXTT3=
EXTT4=
EXTT5=
EXTT6=
EXTT7=
EXTT8=
EXTT9=
EXTT10=
PLAYORDER=
